<svg width="44" height="44" viewBox="0 0 44 44" fill="none" xmlns="http://www.w3.org/2000/svg">
<path d="M22 14.71C17.986 14.71 14.7102 17.9858 14.7102 21.9999C14.7102 26.0139 17.986 29.2897 22 29.2897C26.0141 29.2897 29.2899 26.0139 29.2899 21.9999C29.2899 17.9858 26.0141 14.71 22 14.71ZM43.8641 21.9999C43.8641 18.9811 43.8914 15.9897 43.7219 12.9764C43.5524 9.47643 42.7539 6.37018 40.1946 3.81081C37.6297 1.24596 34.5289 0.452994 31.0289 0.283463C28.0102 0.113931 25.0188 0.141275 22.0055 0.141275C18.9867 0.141275 15.9953 0.113931 12.982 0.283463C9.48205 0.452994 6.3758 1.25143 3.81642 3.81081C1.25158 6.37565 0.458609 9.47643 0.289078 12.9764C0.119546 15.9952 0.14689 18.9866 0.14689 21.9999C0.14689 25.0132 0.119546 28.01 0.289078 31.0233C0.458609 34.5233 1.25705 37.6296 3.81642 40.1889C6.38127 42.7538 9.48205 43.5467 12.982 43.7163C16.0008 43.8858 18.9922 43.8585 22.0055 43.8585C25.0242 43.8585 28.0156 43.8858 31.0289 43.7163C34.5289 43.5467 37.6352 42.7483 40.1946 40.1889C42.7594 37.6241 43.5524 34.5233 43.7219 31.0233C43.8969 28.01 43.8641 25.0186 43.8641 21.9999ZM22 33.2163C15.793 33.2163 10.7836 28.2069 10.7836 21.9999C10.7836 15.7928 15.793 10.7835 22 10.7835C28.2071 10.7835 33.2164 15.7928 33.2164 21.9999C33.2164 28.2069 28.2071 33.2163 22 33.2163ZM33.6758 12.9436C32.2266 12.9436 31.0563 11.7733 31.0563 10.3241C31.0563 8.87487 32.2266 7.70456 33.6758 7.70456C35.125 7.70456 36.2953 8.87487 36.2953 10.3241C36.2958 10.6682 36.2283 11.009 36.0968 11.3271C35.9653 11.6451 35.7724 11.934 35.5291 12.1773C35.2857 12.4207 34.9968 12.6136 34.6788 12.7451C34.3608 12.8766 34.0199 12.9441 33.6758 12.9436Z" fill="#1F4590"/>
</svg>
