<svg width="44" height="44" viewBox="0 0 44 44" fill="none" xmlns="http://www.w3.org/2000/svg">
<path d="M22 0.125C9.91992 0.125 0.125 9.91992 0.125 22C0.125 34.0801 9.91992 43.875 22 43.875C34.0801 43.875 43.875 34.0801 43.875 22C43.875 9.91992 34.0801 0.125 22 0.125ZM32.5127 16.6143C32.5273 16.8438 32.5273 17.083 32.5273 17.3174C32.5273 24.4854 27.0684 32.7422 17.0928 32.7422C14.0166 32.7422 11.165 31.8486 8.7627 30.3105C9.20215 30.3594 9.62207 30.3789 10.0713 30.3789C12.6104 30.3789 14.9443 29.5195 16.8047 28.0645C14.4219 28.0156 12.4199 26.4531 11.7363 24.3047C12.5713 24.4268 13.3232 24.4268 14.1826 24.207C12.9557 23.9578 11.8529 23.2914 11.0616 22.3212C10.2703 21.351 9.83929 20.1368 9.8418 18.8848V18.8164C10.5596 19.2217 11.4043 19.4707 12.2881 19.5049C11.5451 19.0097 10.9358 18.3389 10.5142 17.5519C10.0926 16.7649 9.8717 15.886 9.87109 14.9932C9.87109 13.9824 10.1348 13.0596 10.6084 12.2588C11.9702 13.9352 13.6696 15.3064 15.596 16.283C17.5225 17.2597 19.6329 17.8201 21.79 17.9277C21.0234 14.2412 23.7773 11.2578 27.0879 11.2578C28.6504 11.2578 30.0566 11.9121 31.0479 12.9668C32.2734 12.7373 33.4453 12.2783 34.4902 11.6631C34.085 12.918 33.2354 13.9775 32.1074 14.6465C33.2012 14.5293 34.2559 14.2266 35.2324 13.8018C34.4951 14.8857 33.5723 15.8477 32.5127 16.6143Z" fill="#1F4590"/>
</svg>
